<svg xmlns="http://www.w3.org/2000/svg" viewBox="0 0 64 64" role="img" aria-label="Doboré">
  <rect x="2" y="2" width="60" height="60" rx="15" fill="#F4ECDC" stroke="#A8622F" stroke-width="2.5"/>
  <g transform="translate(8,14) scale(0.75)" fill="#A8622F">
    <path d="M43 22.5c5.5-2.2 11.5-3 19-2.2-5.8 3.4-11.6 5.2-17.6 5.6l-1.4-3.4z"/>
    <path d="M44.5 24.8c.8-5.8-2.8-10.6-8.6-11.7-6.6-1.2-11.8 2.6-13.7 8.6-2.1 6.6-7.6 10.5-14.6 11.4 4.8 3 10.4 3.9 15.4 2-1.2 3.8-3.8 6.8-7.6 8.7 5.8 1.2 11.6-1.6 14.7-6.6 3 .8 6.6-.1 9.4-2.7 2.9-2.6 5-6 5-9.7z"/>
    <path d="M29.5 15C26 6.8 18.4 1.4 8.2 2c6.8 3.2 11.8 8.4 14.6 15.6 2.2-1.2 4.4-2 6.7-2.6z"/>
    <circle cx="38.6" cy="16.8" r="1.6" fill="#F4ECDC"/>
  </g>
</svg>
